<?xml version="1.0" encoding="utf-8"?>
<!-- Generator: Adobe Illustrator 23.0.1, SVG Export Plug-In . SVG Version: 6.00 Build 0)  -->
<svg version="1.1" id="Layer_1" xmlns="http://www.w3.org/2000/svg" xmlns:xlink="http://www.w3.org/1999/xlink" x="0px" y="0px"
	 viewBox="0 0 6041.72 2267.72" style="enable-background:new 0 0 6041.72 2267.72;" xml:space="preserve">
<style type="text/css">
	.st0{fill:#EC184A;}
</style>
<g>
	<g>
		<g>
			<path class="st0" d="M1824.09,1349.92c0,21.85,0,36.87-9.56,49.15c-8.87,12.29-24.58,18.43-51.2,18.43s-42.33-6.14-51.2-18.43
				c-9.56-12.29-9.56-27.31-9.56-49.15v-318.81c0-42.33,15.7-58.03,58.03-58.03h152.24c21.85,0,36.86,0,49.15,8.88
				c12.29,8.19,18.43,22.53,18.43,47.1c0,24.58-6.14,38.91-18.43,47.1c-12.29,8.88-27.31,8.88-49.15,8.88h-88.75v60.08h70.32
				c21.85,0,36.86,0,49.15,8.19c12.29,8.88,18.43,22.53,18.43,46.42c0,23.89-6.14,37.55-18.43,46.42
				c-12.29,8.19-27.31,8.19-49.15,8.19h-70.32V1349.92z"/>
			<path class="st0" d="M2477.4,1326.02h-152.24l-12.29,34.13c-14.34,39.6-31.4,57.34-74.41,57.34c-38.91,0-53.25-14.34-53.25-36.18
				c0-8.19,2.05-17.07,7.51-29.36l139.27-330.42c14.34-34.82,30.72-53.25,74.41-53.25c44.37,0,58.71,19.12,72.36,53.25l134.49,331.1
				c4.1,11.61,6.14,19.8,6.14,27.31c0,24.58-19.11,37.55-58.03,37.55c-40.96,0-55.3-14.34-71-56.66L2477.4,1326.02z M2359.3,1231.81
				h84.65l-42.33-114.69L2359.3,1231.81z"/>
			<path class="st0" d="M3095.22,1169.01c35.5,23.89,65.54,58.03,65.54,114.01c0,87.38-74.41,137.9-165.21,137.9
				c-31.4,0-62.81-6.14-92.84-19.8c-23.21-10.92-43.01-25.26-43.01-52.57c0-25.94,17.75-60.08,49.15-60.08
				c28.67,0,50.52,28.67,87.38,28.67c24.58,0,40.28-12.29,40.28-29.36c0-21.16-23.89-34.13-53.25-49.83
				c-50.52-26.62-119.47-58.71-119.47-138.58c0-82.6,71.68-135.17,159.75-135.17c61.44,0,129.71,25.94,129.71,71
				c0,25.94-22.53,57.34-51.88,57.34c-25.26,0-49.84-23.89-80.56-23.89c-20.48,0-32.77,10.92-32.77,23.89
				C2988.04,1120.54,3046.07,1135.55,3095.22,1169.01z"/>
			<path class="st0" d="M3644.76,1349.92c0,21.85,0,36.87-9.56,49.15c-9.56,12.29-25.26,18.43-52.57,18.43s-43.01-6.14-52.57-18.43
				s-9.56-27.31-9.56-49.15v-264.88h-58.71c-21.85,0-36.86,0-49.15-8.88c-12.29-8.19-18.43-22.53-18.43-47.1
				c0-24.58,6.14-38.91,18.43-47.1c12.29-8.88,27.31-8.88,49.15-8.88h241.67c21.85,0,36.86,0,49.15,8.88
				c12.29,8.19,18.43,22.53,18.43,47.1c0,24.58-6.14,38.91-18.43,47.1c-12.29,8.88-27.31,8.88-49.15,8.88h-58.71V1349.92z"/>
			<path class="st0" d="M4259.85,1302.13c21.85,0,36.86,0,49.15,8.88c12.29,8.19,18.43,22.53,18.43,47.1s-6.14,38.91-18.43,47.1
				c-12.29,8.88-27.31,8.88-49.15,8.88h-161.79c-42.33,0-58.03-15.7-58.03-58.03v-320.18c0-21.85,0-36.86,9.56-49.15
				c9.56-12.29,25.26-18.43,52.57-18.43c27.31,0,43.01,6.14,52.57,18.43c9.56,12.29,9.56,27.31,9.56,49.15v266.24H4259.85z"/>
			<path class="st0" d="M4846.25,1326.02h-152.24l-12.29,34.13c-14.34,39.6-31.4,57.34-74.41,57.34
				c-38.91,0-53.25-14.34-53.25-36.18c0-8.19,2.05-17.07,7.51-29.36l139.27-330.42c14.34-34.82,30.72-53.25,74.41-53.25
				c44.37,0,58.71,19.12,72.36,53.25l134.49,331.1c4.1,11.61,6.14,19.8,6.14,27.31c0,24.58-19.12,37.55-58.03,37.55
				c-40.96,0-55.3-14.34-71-56.66L4846.25,1326.02z M4728.15,1231.81h84.65l-42.33-114.69L4728.15,1231.81z"/>
			<path class="st0" d="M5515.27,1399.75c-28.67,12.29-68.95,19.11-126.98,19.11c-32.09,0-64.17-2.05-87.38-8.87
				c-42.33-12.29-45.06-37.55-45.06-66.9v-303.11c0-40.96,14.34-57.35,56.66-66.22c22.53-4.78,51.88-6.83,79.19-6.83
				c124.93,0,176.81,42.33,176.81,112.64c0,83.29-74.41,96.94-74.41,96.94s96.26,10.92,96.26,111.28
				C5590.37,1345.82,5558.28,1381.32,5515.27,1399.75z M5370.55,1141.7h10.24c12.29,0,34.82,0,49.84-11.61
				c8.88-6.83,13.65-17.07,13.65-30.04c0-30.72-27.31-36.86-51.88-36.86c-11.61,0-21.85,1.37-21.85,1.37V1141.7z M5370.55,1323.97
				c0,0,10.24,1.37,24.58,1.37c32.77,0,71-7.51,71-47.1c0-19.12-8.88-33.45-24.58-41.64c-18.43-9.56-39.6-9.56-60.08-9.56h-10.92
				V1323.97z"/>
		</g>
		<g>
			<path class="st0" d="M488.55,1802.18h-3.98c-78.03,0-141.51-63.48-141.51-141.51v-409.22h212.2V760.86
				c0-78.03,63.48-141.51,141.51-141.51h300.56c78.03,0,141.51,63.48,141.51,141.51c0,78.03-63.48,141.51-141.51,141.51H630.07
				v140.84h256.07c78.03,0,141.51,63.48,141.51,141.51s-63.48,141.51-141.51,141.51H630.07v334.41
				C630.07,1738.7,566.58,1802.18,488.55,1802.18z M417.87,1326.25v334.41c0,36.78,29.92,66.7,66.7,66.7h3.98
				c36.78,0,66.7-29.92,66.7-66.7v-334.41H417.87z M630.07,1251.44h256.07c36.78,0,66.7-29.92,66.7-66.7
				c0-36.78-29.92-66.7-66.7-66.7H630.07V1251.44z M630.07,827.57h367.26c36.78,0,66.7-29.92,66.7-66.7
				c0-36.78-29.92-66.7-66.7-66.7H696.77c-36.78,0-66.7,29.92-66.7,66.7V827.57z"/>
		</g>
	</g>
</g>
</svg>
