<?xml version="1.0" encoding="utf-8"?>
<!-- Generator: Adobe Illustrator 23.0.0, SVG Export Plug-In . SVG Version: 6.00 Build 0)  -->
<svg version="1.1" id="Layer_1" xmlns="http://www.w3.org/2000/svg" xmlns:xlink="http://www.w3.org/1999/xlink" x="0px" y="0px"
	 viewBox="0 0 368.5 368.5" style="enable-background:new 0 0 368.5 368.5;" xml:space="preserve">
<title>UoN</title>
<path d="M42.4,222.6h13.8v2.1h-5.5v14.4h-2.9v-14.4h-5.4C42.4,224.7,42.4,222.6,42.4,222.6z"/>
<path d="M72.6,231.7h-7.8v7.4h-2.9v-16.6h2.9v7h7.8v-7h2.9v16.6h-2.9V231.7z"/>
<path d="M93.3,239.1H83v-16.6h10v2.1h-7.1v4.8h5.2v2.1h-5.2v5.3h7.4V239.1z"/>
<path d="M125.6,233.5c0,2.2-1.3,6-6.8,6c-4.4,0-6.8-2.1-6.8-6v-10.9h2.9v10.9c0,2.5,1.4,3.9,4,3.9c2,0.2,3.8-1.3,4-3.3
	c0-0.2,0-0.4,0-0.6v-10.9h2.8L125.6,233.5z"/>
<path d="M148,222.6v16.6h-2.6l-9.5-11.9v11.9h-2.8v-16.5h2.7l9.5,12v-12h2.7V222.6z"/>
<path d="M155.6,239.1v-16.6h2.9v16.6H155.6z"/>
<path d="M171.4,239.3H170l-5.6-16.7h3l3.6,11.3l4-11.3h2.7L171.4,239.3z"/>
<path d="M193.8,239.1h-10.3v-16.6h10v2.1h-7.1v4.8h5.2v2.1h-5.2v5.3h7.4L193.8,239.1z"/>
<path d="M210,239.5l-4.6-7.6h-1.9v7.3h-3v-16.6h5.1c4.1,0,5.7,2.4,5.7,4.2c-0.1,2-1.3,3.8-3.2,4.5l5.1,7.9L210,239.5z M204.8,229.7
	c2.2,0,3.6-1.2,3.6-2.6s-1.2-2.4-3.5-2.4h-1.3v5H204.8z"/>
<path d="M223.1,237.4c1.6,0,2.9-0.9,2.9-2.2s-1.7-2.2-3.6-3.2c-1.6-0.9-4.3-2.3-4.3-5.2c0-2.4,2.1-4.5,5.2-4.5c1.6,0,3.2,0.3,4.6,1
	l-0.8,1.9c-1.2-0.5-2.5-0.8-3.8-0.7c-1.6,0-2.6,1-2.6,2c0,1.4,1.6,2.4,3.4,3.3c1.5,0.8,4.7,2.1,4.7,5.1c0,3.3-3.8,4.7-5.8,4.7
	c-1.9,0-3.8-0.5-5.4-1.4l0.9-1.9C220,237,221.6,237.3,223.1,237.4z"/>
<path d="M235.5,239.1v-16.6h2.9v16.6H235.5z"/>
<path d="M244.1,222.6h13.8v2.1h-5.5v14.4h-2.9v-14.4h-5.4V222.6z"/>
<path d="M276.4,222.6l-5.5,8.5v8H268v-8l-5.7-8.5h3.1l4.2,6.5l4-6.5H276.4z"/>
<path d="M309.6,230.9c0.2,4.6-3.4,8.5-8,8.6c-0.2,0-0.5,0-0.7,0c-5,0-8.7-3.2-8.7-8.6c-0.1-4.6,3.5-8.5,8.1-8.6c0.2,0,0.4,0,0.6,0
	C306.2,222.2,309.6,225.7,309.6,230.9z M295.4,230.9c0,3.9,2.2,6.5,5.5,6.5s5.5-2.6,5.5-6.5s-2.2-6.5-5.5-6.5S295.4,227,295.4,230.9
	z"/>
<path d="M315.6,239.1v-16.6h9.5v2.1h-6.5v4.8h4.6v2.1h-4.6v7.4h-3V239.1z"/>
<path d="M74.3,254.3v34.4h-5.5l-19.7-24.8v24.8h-5.8v-34.4h5.6l19.7,24.9v-24.9L74.3,254.3L74.3,254.3z"/>
<path d="M103.8,288.7H82.4v-34.4h20.9v4.4H88.5v10h10.8v4.4H88.5v11.1h15.3V288.7z"/>
<path d="M122.1,289H119l-11.7-34.7h6.3l7.9,24.2l5.1-14.3l-3.3-10h6.3l7.6,23.6l8.2-23.6h5.7l-13,34.7H135l-6-18L122.1,289z"/>
<path d="M183.2,286.4c-2.4,1.5-5.7,3-12.5,3c-12.1,0-18.5-9.1-18.5-18s6.4-17.9,18.5-17.9c4.1-0.1,8.1,0.8,11.8,2.7l-1.9,4.1
	c-3-1.6-6.3-2.4-9.7-2.3c-7.5,0-12,5.6-12,13.4s4.7,13.5,12.6,13.5c3.4,0.1,6.8-0.7,9.8-2.2L183.2,286.4z"/>
<path d="M191.4,288.7h-6l15.2-34.6h2.4l13.5,34.6H210l-3.3-8.6H195L191.4,288.7z M201.1,265.4l-4.3,10.3h8.3L201.1,265.4z"/>
<path d="M231.4,285c3.3,0,6-1.9,6-4.5c0-2.9-3.5-4.6-7.4-6.7c-3.5-1.8-9-4.7-9-10.9c0-4.9,4.4-9.3,10.9-9.3c3.3-0.1,6.6,0.6,9.5,2
	l-1.7,3.9c-2.4-1.1-5.1-1.6-7.8-1.5c-3.4,0-5.4,2.2-5.4,4.1c0,3,3.4,4.9,7.1,6.9c3.2,1.8,9.7,4.4,9.7,10.7c0,6.8-7.9,9.8-12,9.8
	c-3.9,0-7.8-1-11.3-2.9l1.9-4C224.9,284.1,228.1,284.9,231.4,285z"/>
<path d="M246.4,254.3h28.7v4.4h-11.3v30h-6.1v-30h-11.3L246.4,254.3L246.4,254.3z"/>
<path d="M286.4,284.3h13.2v4.4h-19.3v-34.4h6.1L286.4,284.3z"/>
<path d="M325.7,288.7h-21.5v-34.4h20.9v4.4h-14.8v10h10.8v4.4h-10.8v11.1h15.4V288.7z"/>
<path d="M112.5,320.4h-2.9l7.3-16.6h1.1l6.5,16.6h-3.1l-1.6-4.1h-5.7L112.5,320.4z M117.2,309.2l-2.1,4.9h4L117.2,309.2z"/>
<path d="M143.4,314.8c0,2.2-1.3,6-6.8,6c-4.4,0-6.8-2.1-6.8-6v-10.9h2.9v10.9c0,2.5,1.4,3.9,4,3.9c2,0.2,3.8-1.3,4-3.3
	c0-0.2,0-0.4,0-0.6v-10.9h2.8L143.4,314.8z"/>
<path d="M155.1,318.6c1.6,0,2.9-0.9,2.9-2.2s-1.7-2.2-3.6-3.2c-1.6-0.9-4.3-2.3-4.3-5.2c0-2.4,2.1-4.5,5.2-4.5c1.6,0,3.2,0.3,4.6,1
	l-0.8,1.9c-1.2-0.5-2.5-0.8-3.7-0.7c-1.6,0-2.6,1-2.6,2c0,1.4,1.6,2.3,3.4,3.3c1.5,0.8,4.6,2.1,4.6,5.1c0,3.3-3.8,4.7-5.8,4.7
	c-1.9,0-3.8-0.5-5.4-1.4l0.9-1.9C152,318.2,153.5,318.6,155.1,318.6z"/>
<path d="M165.3,303.8h13.8v2.2h-5.5v14.4h-2.9V306h-5.4L165.3,303.8L165.3,303.8z"/>
<path d="M194.2,320.7l-4.6-7.6h-1.9v7.3h-3v-16.6h5.1c4.1,0,5.7,2.5,5.7,4.2c-0.1,2-1.3,3.8-3.2,4.5l5.1,7.9L194.2,320.7z M189,311
	c2.2,0,3.6-1.2,3.6-2.6s-1.2-2.4-3.5-2.4h-1.3v5H189z"/>
<path d="M203.9,320.4H201l7.3-16.6h1.1l6.5,16.6h-3.1l-1.6-4.1h-5.7L203.9,320.4z M208.6,309.2l-2.1,4.9h4L208.6,309.2z"/>
<path d="M224.4,318.3h6.3v2.1h-9.3v-16.6h2.9v14.5H224.4z"/>
<path d="M236.1,320.4v-16.6h2.9v16.6H236.1z"/>
<path d="M247.3,320.4h-2.9l7.3-16.6h1.1l6.5,16.6h-3.1l-1.6-4.1H249L247.3,320.4z M252,309.2l-2.1,4.9h4L252,309.2z"/>
<path d="M173.2,50.9L173.2,50.9C173.3,51,173.3,51,173.2,50.9c-21.8,7.7-28.7,34.2-28.7,34.2v0.1h0.1c39.5-51.7,76.2-35,76.2-35
	c0.1,0,0.1,0.1,0.1,0.1l0,0c0,0.1-0.1,0.1-0.1,0.1c-0.7-0.1-11.6-0.9-15.2,9.1l54.7,61.1c0,1.7-0.7,3.4-1.8,4.7
	c-0.6-0.8-2.9-1.9-4.5-2.4c-2.1-0.7-4.1-1-4.1-2.6c0-0.8,0.6-1.5,1.4-1.5h0.1c0.3,0,0.5,0.1,0.7,0.2l0,0l0,0
	c-0.3-0.5-0.9-0.8-1.5-0.8c-1.5,0-2.8,1.2-2.9,2.8c-0.1,1.4,0.7,2.7,1.9,3.4c1.2,0.8,3.5,1.9,3.5,3.6c0,1-0.6,2-1.6,2.3
	c-3.3,1.5-6.8,2.7-10.4,3.4c-0.2-0.9-0.2-3.7-5.2-8.7c-9.6-9.7-44.1-1.6-44.1-25.3c0-11,10.4-15.3,16.4-15c5.1,0.3,7.2,1.8,7.6,2.1
	h0.1v-0.1l0,0c0,0-3.8-8.3-14.5-8.3c-11.9,0-28.6,8.7-28.6,27.7c0,39.4,55.2,36.9,55.2,70.2c0,13-7.6,19.6-17.2,23
	c2.9-2.3,4.6-5.8,4.6-9.4c0-28.2-65.2-22.1-65.2-53c0-12,10.3-16.4,12.9-16.4c0.1,0,0.1,0,0.1-0.1l0,0c0,0,0-0.1-0.1-0.1
	c-1.6-0.8-3.3-1.2-5.1-1.1c-8.2,0-23.8,7.3-23.8,26.1c0,22.3,29,36.3,29,47.1c0,2.9-1.1,5.7-2.9,7.9c-23.8-7.6-54.3-31.5-54.3-74.1
	C106.1,74.6,154.2,50.9,173.2,50.9"/>
</svg>
